<?xml version="1.0" encoding="iso-8859-1"?>
<!-- Generator: Adobe Illustrator 19.0.0, SVG Export Plug-In . SVG Version: 6.00 Build 0)  -->
<svg version="1.1" id="Layer_1" xmlns="http://www.w3.org/2000/svg" xmlns:xlink="http://www.w3.org/1999/xlink" x="0px" y="0px"
	 viewBox="0 0 496 496" style="enable-background:new 0 0 496 496;" xml:space="preserve">
<g>
	<g>
		<path d="M248,0C112,0,0,112,0,248s112,248,248,248c4.8,0,9.6-1.6,14.4-3.2c20.8-8,35.2-25.6,35.2-48c0-27.2-22.4-49.6-49.6-49.6
			c-1.6,0-4.8,0-6.4,0c-1.6,0-1.6,0-3.2,0c-19.2-4.8-32-22.4-32-41.6c0-22.4,19.2-41.6,41.6-41.6h177.6c41.6,0,70.4-25.6,70.4-64
			C496,112,384,0,248,0z M425.6,281.6H248c-40,0-73.6,33.6-73.6,73.6c0,35.2,24,64,57.6,72h1.6c4.8,1.6,9.6,1.6,14.4,1.6
			c9.6,0,17.6,8,17.6,17.6c0,8-4.8,14.4-12.8,17.6c-1.6,0-3.2,0-4.8,0c-118.4,0-216-97.6-216-216S129.6,32,248,32
			s216,97.6,216,217.6C464,276.8,440,281.6,425.6,281.6z"/>
	</g>
</g>
<g>
	<g>
		<path d="M118.4,232C88,232,64,256,64,286.4c0,30.4,24,54.4,54.4,54.4c28.8,0,54.4-24,54.4-54.4C172.8,256,148.8,232,118.4,232z
			 M118.4,308.8c-12.8,0-22.4-9.6-22.4-22.4s9.6-22.4,22.4-22.4c11.2,0,22.4,9.6,22.4,22.4S131.2,308.8,118.4,308.8z"/>
	</g>
</g>
<g>
	<g>
		<path d="M148.8,108.8c-30.4,0-54.4,24-54.4,54.4c0,30.4,24,54.4,54.4,54.4c28.8,0,54.4-24,54.4-54.4
			C203.2,132.8,179.2,108.8,148.8,108.8z M148.8,185.6c-12.8,0-22.4-9.6-22.4-22.4s9.6-22.4,22.4-22.4c11.2,0,22.4,9.6,22.4,22.4
			S161.6,185.6,148.8,185.6z"/>
	</g>
</g>
<g>
	<g>
		<path d="M273.6,60.8c-30.4,0-54.4,24-54.4,54.4c0,30.4,24,54.4,54.4,54.4c28.8,0,54.4-24,54.4-54.4C328,84.8,304,60.8,273.6,60.8z
			 M273.6,139.2c-12.8,0-22.4-9.6-22.4-22.4s9.6-22.4,22.4-22.4c11.2,0,22.4,9.6,22.4,22.4S286.4,139.2,273.6,139.2z"/>
	</g>
</g>
<g>
	<g>
		<path d="M380.8,139.2c-30.4,0-54.4,24-54.4,54.4c0,30.4,24,54.4,54.4,54.4c28.8,0,54.4-24,54.4-54.4
			C435.2,163.2,411.2,139.2,380.8,139.2z M380.8,216c-12.8,0-22.4-9.6-22.4-22.4s9.6-22.4,22.4-22.4c11.2,0,22.4,9.6,22.4,22.4
			S393.6,216,380.8,216z"/>
	</g>
</g>
<g>
</g>
<g>
</g>
<g>
</g>
<g>
</g>
<g>
</g>
<g>
</g>
<g>
</g>
<g>
</g>
<g>
</g>
<g>
</g>
<g>
</g>
<g>
</g>
<g>
</g>
<g>
</g>
<g>
</g>
</svg>
